HIERARCHY
ROOT Hips
{
  OFFSET -35.2597 29.1586 114.425
  CHANNELS 6 Xposition Yposition Zposition Zrotation Xrotation Yrotation
  JOINT LeftUpLeg
  {
    OFFSET 8.64259 1.95398 -2.38835
    CHANNELS 3 Zrotation Xrotation Yrotation
    JOINT LeftLeg
    {
      OFFSET 43.7702 0 0
      CHANNELS 3 Zrotation Xrotation Yrotation
      JOINT LeftFoot
      {
        OFFSET 40.6238 0 0
        CHANNELS 3 Zrotation Xrotation Yrotation
        JOINT LeftToeBase
        {
          OFFSET 12.7242 0 0
          CHANNELS 3 Zrotation Xrotation Yrotation
          End Site
          {
            OFFSET 0 0 0
          }
        }
      }
    }
  }
  JOINT RightUpLeg
  {
    OFFSET -8.2249 1.95398 -2.59336
    CHANNELS 3 Zrotation Xrotation Yrotation
    JOINT RightLeg
    {
      OFFSET 43.5653 0 0
      CHANNELS 3 Zrotation Xrotation Yrotation
      JOINT RightFoot
      {
        OFFSET 40.6238 0 0
        CHANNELS 3 Zrotation Xrotation Yrotation
        JOINT RightToeBase
        {
          OFFSET 12.7242 0 0
          CHANNELS 3 Zrotation Xrotation Yrotation
          End Site
          {
            OFFSET 0 0 0
          }
        }
      }
    }
  }
  JOINT Spine
  {
    OFFSET 0.165834 0.87714 6.61349
    CHANNELS 3 Zrotation Xrotation Yrotation
    JOINT Spine1
    {
      OFFSET 7.38963 1.71661e-005 0
      CHANNELS 3 Zrotation Xrotation Yrotation
      JOINT Spine2
      {
        OFFSET 11.9445 1.14441e-005 0
        CHANNELS 3 Zrotation Xrotation Yrotation
        JOINT Spine3
        {
          OFFSET 14.7254 4.19617e-005 0
          CHANNELS 3 Zrotation Xrotation Yrotation
          JOINT Spine4
          {
            OFFSET 10.9679 0 0
            CHANNELS 3 Zrotation Xrotation Yrotation
            JOINT RightShoulder
            {
              OFFSET 2.46616 -1.6653 3.69651
              CHANNELS 3 Zrotation Xrotation Yrotation
              JOINT RightArm
              {
                OFFSET 13.0012 0 0
                CHANNELS 3 Zrotation Xrotation Yrotation
                JOINT RightForeArm
                {
                  OFFSET 28.7848 1.62311e-005 0
                  CHANNELS 3 Zrotation Xrotation Yrotation
                  JOINT RightHand
                  {
                    OFFSET 26.5688 1.62095e-005 0
                    CHANNELS 3 Zrotation Xrotation Yrotation
                    End Site
                    {
                      OFFSET 0 0 0
                    }
                  }
                }
              }
            }
            JOINT LeftShoulder
            {
              OFFSET 2.38034 -1.29275 -3.7523
              CHANNELS 3 Zrotation Xrotation Yrotation
              JOINT LeftArm
              {
                OFFSET 16.3182 6.07031e-005 0
                CHANNELS 3 Zrotation Xrotation Yrotation
                JOINT LeftForeArm
                {
                  OFFSET 27.0901 0 0
                  CHANNELS 3 Zrotation Xrotation Yrotation
                  JOINT LeftHand
                  {
                    OFFSET 24.5451 1.51738e-005 0
                    CHANNELS 3 Zrotation Xrotation Yrotation
                    End Site
                    {
                      OFFSET 0 0 0
                    }
                  }
                }
              }
            }
            JOINT Neck
            {
              OFFSET 5.0226 -0.0266342 0
              CHANNELS 3 Zrotation Xrotation Yrotation
              JOINT Head
              {
                OFFSET 6.69364 2.86102e-005 0
                CHANNELS 3 Zrotation Xrotation Yrotation
                End Site
                {
                  OFFSET 0 0 0
                }
              }
            }
          }
        }
      }
    }
  }
}
MOTION
Frames:	13
Frame Time:	0.0416667
-230.184 97.6641 203.048 91.5414 15.5682 88.4369 -175.604 -1.92545 88.8199 -5.3394 -3.70123 0.849976 67.419 5.16277 -1.89778 20.4485 -9.77023 8.89956 175.443 3.75947 89.8032 -13.4461 -24.4963 -1.9046 65.7899 -3.34309 0.742229 22.7087 2.88571 -0.716933 -0.190649 7.14099 -90.1301 12.5915 -0.440703 -0.208559 0.920632 -0.449457 -0.188969 -21.6148 -0.357662 -0.331368 -1.60217 -0.357634 -0.331369 91.849 -32.2544 -102.358 48.4096 5.58901 -4.05341 -4.9086 -35.778 -5.23765 -23.0508 2.42256 -17.4 -83.8388 -50.3368 88.0304 -32.3288 -10.49 -6.32715 2.64342 16.4563 -3.69569 4.33031 -0.854084 -17.3535 -6.25325 -33.2225 -20.4896 -4.90353 -31.0904 -10.7842 
-230.024 97.6098 203.112 91.8579 15.9515 88.5078 -175.436 -2.22677 89.2369 -5.36577 -3.88221 0.908603 67.5159 4.97941 -3.39712 19.9379 -8.82777 6.91734 175.45 3.10111 89.9587 -12.4191 -20.1095 -1.69603 67.1053 -3.86785 3.20548 20.8567 2.54493 2.33495 -0.196936 7.1947 -90.1391 12.484 -0.457052 -0.225198 0.813145 -0.466531 -0.204864 -21.7223 -0.368246 -0.352152 -1.70965 -0.368273 -0.352157 91.8041 -32.5861 -102.343 48.2168 5.59204 -4.31664 -4.93634 -36.2508 -5.25152 -22.8071 2.37922 -17.3491 -83.8212 -50.2224 88.0444 -31.0268 -10.9825 -6.56385 2.77299 20.9117 -3.82996 1.03518 -0.443919 -16.3413 -6.24979 -33.2181 -20.8448 -4.96958 -31.0561 -10.6716 
-229.765 97.6344 203.175 91.5531 16.6624 88.5138 -175.289 -2.00152 89.3639 -5.37212 -2.93738 0.721491 67.6185 5.11599 -2.99411 19.2644 -9.0751 6.63891 175.456 3.34679 89.9986 -13.0784 -23.1211 -1.79312 66.2826 -3.64845 1.02307 22.625 2.79494 -0.355183 -0.205477 7.15996 -90.153 12.5534 -0.481089 -0.249763 0.882576 -0.491599 -0.228354 -21.6529 -0.383774 -0.3828 -1.64023 -0.383781 -0.382801 91.8416 -32.4114 -102.324 48.7298 5.34376 -4.41009 -4.79552 -33.7777 -5.18324 -24.3706 2.2184 -16.2418 -84.0479 -50.6431 87.7501 -31.1284 -10.9691 -6.34706 2.72552 19.3514 -3.78051 1.47559 -0.513307 -17.1049 -6.15846 -33.2066 -20.6311 -4.78216 -31.0531 -10.7212 
-229.391 97.5667 203.267 91.4158 17.1547 88.4632 -175.097 -1.97939 89.561 -5.43303 -1.9922 0.532304 67.6345 5.20816 -2.72182 19.1812 -9.02388 6.47897 175.433 3.21908 90.0242 -12.8481 -22.2399 -1.72463 66.9971 -4.23973 0.301962 21.5123 2.4248 1.92887 -0.211657 7.15011 -90.1723 12.573 -0.502523 -0.285646 0.902171 -0.514632 -0.263257 -21.6333 -0.393471 -0.423477 -1.62062 -0.393449 -0.423476 92.067 -31.7888 -102.077 50.2438 4.70299 -4.39599 -4.73138 -32.6114 -5.15542 -29.1147 1.92242 -12.6706 -83.9214 -51.4058 88.0235 -30.6361 -11.1551 -6.43841 2.70813 18.7467 -3.76274 1.17935 -0.46695 -16.4936 -4.8243 -33.1886 -19.8495 -5.87062 -30.808 -10.3109 
-228.907 97.5946 203.562 91.0308 18.0505 88.8768 -174.549 -1.94965 90.4681 -5.30609 -1.05571 0.227248 67.9821 5.32835 -3.69244 19.1157 -9.27884 6.80738 175.807 3.25171 90.6978 -13.2201 -20.9512 -1.69705 66.8689 -3.82146 1.88352 22.5661 3.22141 -1.45262 -0.202192 7.13709 -90.1769 12.599 -0.485889 -0.296776 0.928166 -0.498525 -0.275098 -21.6072 -0.374263 -0.429083 -1.59455 -0.374275 -0.429097 91.9721 -32.2869 -102.11 48.6004 5.53986 -3.94953 -4.87483 -35.1899 -5.22125 -24.5482 2.72533 -18.0277 -84.1124 -50.5714 87.645 -31.3902 -10.8131 -6.74186 2.67131 17.4688 -3.72452 1.24285 -0.447653 -15.6495 -5.26028 -33.3848 -20.9655 -5.03154 -31.0395 -10.0295 
-228.235 97.5823 203.841 91.5436 18.7949 88.698 -174.081 -2.33544 90.9601 -5.75078 0.102708 0.0662544 68.3101 5.65584 -3.41295 20.3426 -8.82789 7.32181 175.619 2.39301 90.8853 -13.2709 -20.5458 -1.43801 67.5049 -4.41684 0.670038 21.7365 3.06257 -0.0258713 -0.161726 7.19827 -90.1661 12.4768 -0.400121 -0.285583 0.80592 -0.412305 -0.267701 -21.7293 -0.295784 -0.392631 -1.71664 -0.295803 -0.39264 92.2925 -32.1157 -101.539 49.025 5.32132 -4.07879 -4.82681 -34.3407 -5.19848 -21.988 2.17788 -16.7395 -84.2207 -51.2259 87.5579 -30.7668 -11.0327 -7.00611 2.67421 17.5661 -3.72758 2.15922 -0.497857 -14.6348 -5.20099 -33.5833 -20.8594 -5.0968 -31.2334 -10.018 
-227.359 97.5056 204.177 92.7678 20.1421 87.8345 -173.561 -3.4032 91.4126 -6.53461 1.85618 -0.178567 68.5996 6.01192 -4.21406 21.2904 -9.0349 8.61171 175.18 0.939557 90.7543 -13.8796 -19.5968 -1.20954 68.5421 -5.02596 0.674541 21.5144 3.29752 -0.388099 -0.167932 7.35112 -90.047 12.1718 -0.355944 -0.0535292 0.500945 -0.357968 -0.0378112 -22.0345 -0.323387 -0.15803 -2.0219 -0.323416 -0.158033 91.8192 -32.6641 -102.291 48.8977 5.48592 -3.71444 -4.77911 -33.4839 -5.17661 -22.2446 2.44089 -17.9341 -84.0101 -50.8062 87.8246 -30.4253 -11.1565 -7.13437 2.64777 16.6246 -3.70009 1.93709 -0.512293 -15.543 -5.77056 -33.2696 -21.0087 -4.9112 -31.0147 -10.3978 
-226.289 97.3586 204.753 93.9318 21.916 87.0726 -173.083 -4.22435 92.0296 -7.39427 4.04776 -0.169696 69.1706 7.12969 -3.41956 21.1806 -8.38877 7.46687 174.992 -0.101699 90.9464 -15.0672 -17.7319 -0.980175 69.6773 -5.52865 0.623862 21.466 3.32247 -0.387824 -0.150573 7.47098 -89.9556 11.932 -0.278529 0.11847 0.261075 -0.273032 0.130608 -22.2743 -0.301251 0.0292838 -2.26168 -0.301226 0.029287 91.3454 -33.058 -103.077 49.5318 5.26815 -3.5601 -4.87854 -35.2536 -5.22316 -25.3847 2.20497 -15.2601 -84.2216 -51.1025 87.5424 -29.4888 -11.5949 -6.60403 2.6091 15.2059 -3.65979 3.11584 -0.714092 -17.2487 -6.42201 -32.5405 -19.7063 -5.04204 -30.4727 -11.4998 
-225.366 96.8036 205.268 94.4533 24.1151 86.2543 -173.13 -3.45993 92.1285 -10.0495 5.20192 0.136892 70.4356 9.32018 -3.55143 24.4591 -7.5381 9.52147 174.284 0.225989 90.62 -17.4398 -16.1808 -0.315084 71.9418 -6.91051 -1.61297 20.7642 1.86894 4.23297 -0.0820718 7.51522 -89.8832 11.8435 -0.108217 0.244429 0.172544 -0.0973548 0.248947 -22.3625 -0.176686 0.200601 -2.34988 -0.176672 0.200595 90.8679 -33.273 -103.918 49.52 5.22717 -3.70738 -4.6759 -31.5732 -5.13139 -25.8809 2.37352 -15.7749 -84.3641 -51.3711 87.3609 -28.6362 -11.9635 -6.34248 2.61261 15.3189 -3.66379 4.78641 -0.773536 -15.2559 -5.81981 -29.4437 -15.6094 -5.01103 -27.623 -11.3211 
-224.606 96.3886 205.552 95.5823 27.7823 85.2174 -174.08 3.13204 93.3374 -24.4286 7.83398 0.839495 70.6445 8.69863 -3.60917 25.2483 -6.69962 8.9227 172.837 -0.314441 90.2852 -19.1667 -13.405 1.05372 74.1416 -7.26804 0.682836 20.9256 3.03684 0.971597 -0.0102626 7.65211 -89.9214 11.5696 0.0164127 0.154637 -0.101319 0.0232079 0.153761 -22.6364 -0.0308041 0.152429 -2.62379 -0.0308316 0.152421 90.5321 -33.1472 -104.599 48.6852 5.38672 -4.32865 -4.56894 -29.5141 -5.08704 -25.5012 2.46122 -16.4361 -84.3128 -51.8052 87.487 -28.1368 -12.1742 -6.20963 2.58743 14.3814 -3.63738 4.45993 -0.773164 -16.2298 -3.96704 -23.3452 -10.3605 -5.28934 -21.8167 -9.53655 
-223.646 96.4121 205.509 96.3151 30.8421 83.8195 -174.215 12.1941 90.7444 -37.8192 10.4632 0.65576 68.3437 6.06734 -2.61498 21.6099 -9.26617 9.31925 172.453 -2.03624 89.3482 -17.7339 -9.94099 1.14693 74.2916 -7.51329 -0.464803 21.3528 1.41813 4.82723 0.262838 7.78378 -89.9375 11.3062 0.552224 0.0697913 -0.364675 0.554757 0.0454066 -22.9004 0.505707 0.232531 -2.88778 0.505724 0.232527 89.7475 -33.4811 -105.968 45.4794 6.58909 -4.91128 -4.72074 -32.4132 -5.15054 -20.9558 2.8603 -21.0479 -84.1012 -51.7552 87.7952 -28.6581 -11.9537 -6.37321 2.57424 13.9114 -3.61974 6.17382 -0.768794 -13.6702 -2.55873 -16.4476 -6.44212 -6.08354 -15.2952 -7.6233 
-222.587 96.5514 204.719 96.1958 32.68 81.3443 -174.333 16.8523 87.6724 -36.514 13.0922 -1.03581 66.0092 4.34914 -2.12785 25.4619 -7.52106 10.6055 171.599 -2.53312 87.3381 -18.0788 -8.6459 0.612045 74.8542 -7.62555 -0.0711502 22.8638 1.21709 3.7311 0.615326 7.85679 -89.7037 11.1587 1.3624 0.456981 -0.511591 1.3812 0.39656 -23.0506 1.16208 0.845351 -3.03793 1.16205 0.845343 89.4848 -33.2141 -106.561 45.6691 6.01012 -6.71844 -4.69281 -31.8933 -5.1385 -21.309 3.15408 -22.3853 -84.3003 -51.5244 87.4739 -27.4742 -12.62 -4.11241 2.57463 13.9896 -3.61624 3.00803 -0.636638 -15.9027 -2.62153 -10.7912 -4.17086 -5.13532 -10.0383 -5.33019 
-221.149 96.6328 203.206 95.6519 34.9169 79.5503 -175.652 19.6486 84.229 -27.3056 12.7236 -2.04972 65.9234 4.09864 -3.4678 24.0469 -8.04406 9.92312 170.838 -3.45223 85.4384 -17.0463 -6.43162 0.1387 75.4985 -7.99806 -0.106714 23.8023 0.703863 4.14897 0.82484 7.90741 -89.5616 11.0538 1.84527 0.694797 -0.615963 1.87409 0.612879 -23.1576 1.55114 1.21734 -3.14493 1.55116 1.21734 89.8816 -32.3889 -106.103 46.6128 4.54647 -10.3285 -4.65932 -31.2611 -5.12441 -23.0005 3.64058 -23.4777 -84.3112 -52.5533 87.5742 -25.6478 -13.4718 -1.64578 2.57829 14.1514 -3.61724 2.41201 -0.548702 -15.3035 -2.6016 -7.56636 -0.878334 -4.23327 -7.27654 -4.76694 
